*******************************************************************************
 The Inbetweeners.2011.720p.BDRip.Xvid.AC3-SiNiSTER 
*******************************************************************************
-------------------------------------------------------------------------------
 General Information
------------------------------------------------------------------------------- 
http://sceneunderground.org/static/036d097a1738818477f66f028d23cf7a.jpg
Format : AVI
Format/Info : Audio Video Interleave
Format profile : OpenDML
File size : 2.43 GiB
Duration : 1h 37mn
Overall bit rate : 3 582 Kbps
Writing library : MPlayer
Video
ID : 0
Format : MPEG-4 Visual
Format profile : Advanced Simple@L5
Format settings, BVOP : Yes
Format settings, QPel : No
Format settings, GMC : No warppoints
Format settings, Matrix : Default (H.263)
Codec ID : XVID
Codec ID/Hint : XviD
Duration : 1h 37mn
Bit rate : 3 001 Kbps
Width : 1 280 pixels
Height : 688 pixels
Display aspect ratio : 1.860
Frame rate : 25.000 fps
Color space : YUV
Chroma subsampling : 4:2:0
Bit depth : 8 bits
Scan type : Progressive
Bits/(Pixel*Frame) : 0.136
Stream size : 2.04 GiB (84%)
Writing library : XviD 1.2.1 (UTC 2008-12-04)
Audio
ID : 1
Format : AC-3
Format/Info : Audio Coding 3
Mode extension : CM (complete main)
Codec ID : 2000
Duration : 1h 37mn
Bit rate mode : Constant
Bit rate : 576 Kbps
Channel(s) : 6 channels
Channel positions : Front: L C R, Side: L R, LFE
Sampling rate : 48.0 KHz
Bit depth : 16 bits
Stream size : 400 MiB (16%)
Alignment : Split accross interleaves
Interleave, duration : 500 ms (12.50 video frames)
Interleave, preload duration : 500 ms
Video Source: The inbetweeners 2011 REMUX 1080i DTS-HD MA 5.1.....thanks 
Audio Source: The inbetweeners 2011 REMUX 1080i DTS-HD MA 5.1.....thanks
Greets:
DarkScene,HDScene,Noir,CrEwSaDe,blackjesus,ViSiON,HDLiTE,BTVRG,Twentyforty,UnKnOwN,
FLAWL3SS,BHRG,Rx,Relizlab,MiSTERE,ILLUMiNATI,SAFCuk009,HiVE-CM8..... and everybody 
else we respect.. u know who u are
 
-------------------------------------------------------------------------------
 Post Information
-------------------------------------------------------------------------------
Encoded by...........: SiNiSTER
 
Have sumthing to offer..looking for suppliers... cammers,cams,screeners, audio
supplier.. and any pre retail DVD/BR any RC...if u can provide any email us at
sinister@hushmail.me
-------------------------------------------------------------------------------
 Release Notes
-------------------------------------------------------------------------------
source was very nice. made a script to crop, resize,denoise, slight RGB adjustment
and sharpen.. then converted DTS to AC3 and muxed back to my encode....enjoy
-------------------------------------------------------------------------------
 ScreenShots
------------------------------------------------------------------------------- 
http://sceneunderground.org/static/a056a8d58c5b9fb300c9ff8782751627.png 
http://sceneunderground.org/static/7808e11ca15624bc5f75f63a42cf55a8.png 
http://sceneunderground.org/static/ed53f5f17241151cbf58d67b548e50dd.png 
http://sceneunderground.org/static/e99a9b2c86b6f3198fe4f26babcd2ddf.png 
http://sceneunderground.org/static/569216d493709b177bb8aff9eba4260e.jpg
-------------------------------------------------------------------------------
[img]http://leetleech.org/images/33506450373550172140.gif[/img]
-------------------------------------------------------------------------------
Generated with Cool NFO Creator - http://fly.to/coolbeans